# xmcd
#
# Track frame offsets: 
#        150
#        22686
#        45294
#        71555
#        100821
#
# Disc length: 1625 seconds
#
# Revision: 0
# Processed by: cddbd v1.5.2PL0 Copyright (c) Steve Scherf et al.
# Submitted via: ExactAudioCopy v1.1
#
DISCID=2e065705
DTITLE=Who Shot John - Mama Don't Know
DYEAR=2014
DGENRE=Blues
TTITLE0=Bonfire
TTITLE1=Wilco
TTITLE2=Ms. America
TTITLE3=Who Shot John
TTITLE4=Rodeo
EXTD=
EXTT0=
EXTT1=
EXTT2=
EXTT3=
EXTT4=
PLAYORDER=
